REM DIRINDEX 1\2,1\3
REM DIRNAME folder01,folder02,folder03
TITLE ""
FILE "0241-0280.mp3" MP3
  TRACK 01 AUDIO
    TITLE "0:"
    INDEX 01 00:00:00
  TRACK 02 AUDIO
    TITLE "2:cjc039_0241"
    INDEX 01 00:00:29
  TRACK 03 AUDIO
    TITLE "0:"
    INDEX 01 00:01:46
  TRACK 04 AUDIO
    TITLE "2:cjc039_0242"
    INDEX 01 00:02:24
  TRACK 05 AUDIO
    TITLE "0:"
    INDEX 01 00:03:49
  TRACK 06 AUDIO
    TITLE "2:cjc039_0243"
    INDEX 01 00:04:27
  TRACK 07 AUDIO
    TITLE "0:"
    INDEX 01 00:05:52
  TRACK 08 AUDIO
    TITLE "2:cjc039_0244"
    INDEX 01 00:06:26
  TRACK 09 AUDIO
    TITLE "0:"
    INDEX 01 00:07:56
  TRACK 10 AUDIO
    TITLE "2:cjc039_0245"
    INDEX 01 00:08:32
  TRACK 11 AUDIO
    TITLE "0:"
    INDEX 01 00:09:65
  TRACK 12 AUDIO
    TITLE "2:cjc039_0246"
    INDEX 01 00:10:45
  TRACK 13 AUDIO
    TITLE "0:"
    INDEX 01 00:12:01
  TRACK 14 AUDIO
    TITLE "2:cjc039_0247"
    INDEX 01 00:12:48
  TRACK 15 AUDIO
    TITLE "0:"
    INDEX 01 00:14:07
  TRACK 16 AUDIO
    TITLE "2:cjc039_0248"
    INDEX 01 00:14:54
  TRACK 17 AUDIO
    TITLE "0:"
    INDEX 01 00:16:02
  TRACK 18 AUDIO
    TITLE "2:cjc039_0249"
    INDEX 01 00:16:48
  TRACK 19 AUDIO
    TITLE "0:"
    INDEX 01 00:18:01
  TRACK 20 AUDIO
    TITLE "2:cjc039_0250"
    INDEX 01 00:18:56
  TRACK 21 AUDIO
    TITLE "0:"
    INDEX 01 00:20:02
  TRACK 22 AUDIO
    TITLE "2:cjc039_0251"
    INDEX 01 00:20:55
  TRACK 23 AUDIO
    TITLE "0:"
    INDEX 01 00:22:07
  TRACK 24 AUDIO
    TITLE "2:cjc039_0252"
    INDEX 01 00:22:58
  TRACK 25 AUDIO
    TITLE "0:"
    INDEX 01 00:24:29
  TRACK 26 AUDIO
    TITLE "2:cjc039_0253"
    INDEX 01 00:24:72
  TRACK 27 AUDIO
    TITLE "0:"
    INDEX 01 00:25:74
  TRACK 28 AUDIO
    TITLE "2:cjc039_0254"
    INDEX 01 00:26:50
  TRACK 29 AUDIO
    TITLE "0:"
    INDEX 01 00:28:23
  TRACK 30 AUDIO
    TITLE "2:cjc039_0255"
    INDEX 01 00:29:01
  TRACK 31 AUDIO
    TITLE "0:"
    INDEX 01 00:30:26
  TRACK 32 AUDIO
    TITLE "2:cjc039_0256"
    INDEX 01 00:30:71
  TRACK 33 AUDIO
    TITLE "0:"
    INDEX 01 00:32:17
  TRACK 34 AUDIO
    TITLE "2:cjc039_0257"
    INDEX 01 00:32:64
  TRACK 35 AUDIO
    TITLE "0:"
    INDEX 01 00:34:02
  TRACK 36 AUDIO
    TITLE "2:cjc039_0258"
    INDEX 01 00:34:45
  TRACK 37 AUDIO
    TITLE "0:"
    INDEX 01 00:35:74
  TRACK 38 AUDIO
    TITLE "2:cjc039_0259"
    INDEX 01 00:36:56
  TRACK 39 AUDIO
    TITLE "0:"
    INDEX 01 00:38:10
  TRACK 40 AUDIO
    TITLE "2:cjc039_0260"
    INDEX 01 00:38:59
  TRACK 41 AUDIO
    TITLE "0:"
    INDEX 01 00:40:07
  TRACK 42 AUDIO
    TITLE "2:cjc039_0261"
    INDEX 01 00:40:60
  TRACK 43 AUDIO
    TITLE "0:"
    INDEX 01 00:42:10
  TRACK 44 AUDIO
    TITLE "2:cjc039_0262"
    INDEX 01 00:42:61
  TRACK 45 AUDIO
    TITLE "0:"
    INDEX 01 00:44:01
  TRACK 46 AUDIO
    TITLE "2:cjc039_0263"
    INDEX 01 00:44:56
  TRACK 47 AUDIO
    TITLE "0:"
    INDEX 01 00:45:55
  TRACK 48 AUDIO
    TITLE "2:cjc039_0264"
    INDEX 01 00:46:31
  TRACK 49 AUDIO
    TITLE "0:"
    INDEX 01 00:48:04
  TRACK 50 AUDIO
    TITLE "2:cjc039_0265"
    INDEX 01 00:48:57
  TRACK 51 AUDIO
    TITLE "0:"
    INDEX 01 00:50:05
  TRACK 52 AUDIO
    TITLE "2:cjc039_0266"
    INDEX 01 00:50:64
  TRACK 53 AUDIO
    TITLE "0:"
    INDEX 01 00:52:14
  TRACK 54 AUDIO
    TITLE "2:cjc039_0267"
    INDEX 01 00:52:61
  TRACK 55 AUDIO
    TITLE "0:"
    INDEX 01 00:54:25
  TRACK 56 AUDIO
    TITLE "2:cjc039_0268"
    INDEX 01 00:55:03
  TRACK 57 AUDIO
    TITLE "0:"
    INDEX 01 00:56:22
  TRACK 58 AUDIO
    TITLE "2:cjc039_0269"
    INDEX 01 00:57:01
  TRACK 59 AUDIO
    TITLE "0:"
    INDEX 01 00:58:32
  TRACK 60 AUDIO
    TITLE "2:cjc039_0270"
    INDEX 01 00:59:06
  TRACK 61 AUDIO
    TITLE "0:"
    INDEX 01 01:00:43
  TRACK 62 AUDIO
    TITLE "2:cjc039_0271"
    INDEX 01 01:01:19
  TRACK 63 AUDIO
    TITLE "0:"
    INDEX 01 01:02:54
  TRACK 64 AUDIO
    TITLE "2:cjc039_0272"
    INDEX 01 01:03:31
  TRACK 65 AUDIO
    TITLE "0:"
    INDEX 01 01:04:68
  TRACK 66 AUDIO
    TITLE "2:cjc039_0273"
    INDEX 01 01:05:44
  TRACK 67 AUDIO
    TITLE "0:"
    INDEX 01 01:06:67
  TRACK 68 AUDIO
    TITLE "2:cjc039_0274"
    INDEX 01 01:07:37
  TRACK 69 AUDIO
    TITLE "0:"
    INDEX 01 01:08:70
  TRACK 70 AUDIO
    TITLE "2:cjc039_0275"
    INDEX 01 01:09:44
  TRACK 71 AUDIO
    TITLE "0:"
    INDEX 01 01:11:02
  TRACK 72 AUDIO
    TITLE "2:cjc039_0276"
    INDEX 01 01:11:52
  TRACK 73 AUDIO
    TITLE "0:"
    INDEX 01 01:12:73
  TRACK 74 AUDIO
    TITLE "2:cjc039_0277"
    INDEX 01 01:13:47
  TRACK 75 AUDIO
    TITLE "0:"
    INDEX 01 01:14:68
  TRACK 76 AUDIO
    TITLE "2:cjc039_0278"
    INDEX 01 01:15:42
  TRACK 77 AUDIO
    TITLE "0:"
    INDEX 01 01:16:73
  TRACK 78 AUDIO
    TITLE "2:cjc039_0279"
    INDEX 01 01:17:61
  TRACK 79 AUDIO
    TITLE "0:"
    INDEX 01 01:19:01
  TRACK 80 AUDIO
    TITLE "2:cjc039_0280"
    INDEX 01 01:19:54
  TRACK 81 AUDIO
    TITLE "0:"
    INDEX 01 01:21:02
